<?xml version="1.0" standalone="no"?>
<svg
  width="600"
  height="600"
  viewBox="0 0 600 600"
  xmlns="http://www.w3.org/2000/svg"
>
  <g transform="translate(300,300)">
    <path d="M103,-158.2C137.1,-138.3,170.9,-115.9,191.3,-83.7C211.7,-51.5,218.7,-9.5,209.3,27.4C199.8,64.4,174,96.4,149,134.2C124.1,171.9,100.1,215.5,66,226.2C31.8,237,-12.4,214.9,-62,203.7C-111.6,192.5,-166.5,192.2,-198.8,166.1C-231.1,139.9,-240.8,88,-245.4,37C-250,-13.9,-249.6,-63.9,-230.8,-105.5C-211.9,-147.1,-174.6,-180.4,-133.1,-196.9C-91.5,-213.5,-45.8,-213.2,-5.7,-204.4C34.4,-195.6,68.8,-178.1,103,-158.2Z" fill="rgba(255,255,255,0.3)" />
  </g>
</svg>
